<svg width="25" height="25" viewBox="0 0 25 25" fill="none" xmlns="http://www.w3.org/2000/svg">
<path d="M9.33975 19.9615C4.27564 21.4808 4.27564 17.4295 2.25 16.9231M16.4295 23V19.0804C16.4675 18.5974 16.4022 18.1119 16.2381 17.6561C16.0739 17.2004 15.8146 16.7847 15.4774 16.4369C18.6577 16.0824 22 14.8772 22 9.34717C21.9998 7.93309 21.4558 6.57325 20.4808 5.54909C20.9425 4.31193 20.9098 2.94446 20.3896 1.73075C20.3896 1.73075 19.1945 1.37626 16.4295 3.22973C14.1081 2.60058 11.6611 2.60058 9.33975 3.22973C6.57475 1.37626 5.37962 1.73075 5.37962 1.73075C4.85941 2.94446 4.82676 4.31193 5.28846 5.54909C4.30616 6.58085 3.76166 7.95298 3.76923 9.37755C3.76923 14.867 7.11154 16.0723 10.2918 16.4673C9.95858 16.8116 9.70159 17.2223 9.53756 17.6725C9.37353 18.1227 9.30613 18.6024 9.33975 19.0804V23" stroke="#A3A3A3" stroke-width="2.02564" stroke-linecap="round" stroke-linejoin="round"/>
</svg>
