<svg viewBox="0 0 25 25" fill="#A3A3A3" xmlns="http://www.w3.org/2000/svg">
<path d="M3.72664 1C2.14689 1 1 2.08975 1 3.5901C1 5.08996 2.12413 6.17869 3.67203 6.17869C4.47505 6.17869 5.16682 5.91827 5.67301 5.42573C6.15847 4.95292 6.42597 4.30109 6.42547 3.57847C6.39007 2.06042 5.2801 1 3.72664 1ZM4.96809 4.70109C4.65457 5.00602 4.20603 5.16733 3.67203 5.16733C2.69454 5.16733 2.01136 4.51904 2.01136 3.5901C2.01136 2.646 2.70061 2.01136 3.72664 2.01136C4.72941 2.01136 5.39185 2.63588 5.41461 3.59061C5.4141 4.02651 5.25582 4.42044 4.96809 4.70109Z" fill="#A3A3A3" stroke="#A3A3A3" stroke-width="0.65"/>
<path d="M1.48486 23.7431H6.02994V7.03284H1.48486V23.7431ZM2.49623 8.0442H5.01857V22.7312H2.49623V8.0442Z" fill="#A3A3A3" stroke="#A3A3A3" stroke-width="0.65"/>
<path d="M18.0152 7.03284C15.9075 7.03284 14.617 7.76051 13.8696 8.4447L13.7275 7.03284H8.58521V23.7426H13.6213V14.9604C13.6213 14.5822 13.7745 13.7968 13.8706 13.5895C14.4789 12.2793 15.2997 12.2793 16.5426 12.2793C17.9742 12.2793 19.1838 13.6219 19.1838 15.2107V23.7436H24.2406V14.3025C24.2406 9.3074 21.0134 7.03284 18.0152 7.03284ZM23.2293 22.7317H20.1952V15.2102C20.1952 13.0727 18.5224 11.2674 16.5426 11.2674C15.2723 11.2674 13.8332 11.2674 12.9528 13.1637C12.7712 13.5556 12.6094 14.4947 12.6094 14.9604V22.7317H9.59657V8.0442H12.8127L13.019 10.0892H13.8478L13.996 9.84999C14.3333 9.30689 15.3998 8.0437 18.0152 8.0437C20.5264 8.0437 23.2293 10.0017 23.2293 14.301V22.7317Z" fill="#A3A3A3" stroke="#A3A3A3" stroke-width="0.65"/>
</svg>
