<svg width="160" height="160" viewBox="0 0 160 160" fill="none" xmlns="http://www.w3.org/2000/svg">
<circle cx="80" cy="80" r="80" fill="#3D403C"/>
<g clip-path="url(#clip0_22_71)">
<path fill-rule="evenodd" clip-rule="evenodd" d="M112.306 47.3171C105.486 40.4968 93.0559 41.3115 80.1041 48.2946C78.1703 49.3356 78.3151 53.6104 80.1458 54.7286C90.2045 60.9509 98.6738 69.4328 104.881 79.5009C105.994 81.3329 110.318 81.3959 111.329 79.5194C111.091 79.0771 110.846 78.6356 110.595 78.1948C110.845 78.6356 111.09 79.0771 111.329 79.5194C118.312 66.5677 119.127 54.1374 112.306 47.3171ZM97.8928 61.7307C94.1885 58.0069 90.13 54.653 85.7748 51.7168C90.7889 49.398 95.5652 48.1549 99.6111 48.1549C103.228 48.1549 106.264 49.1468 108.368 51.2509C112.832 55.7154 112.302 64.3562 107.907 73.8492C104.967 69.4968 101.613 65.4384 97.8928 61.7307Z" fill="white"/>
<path fill-rule="evenodd" clip-rule="evenodd" d="M115.319 88.8583C114.286 85.6267 112.95 82.4998 111.329 79.5194C110.305 77.6151 105.99 77.6725 104.881 79.5009C101.805 84.5317 98.1363 89.1754 93.9542 93.3325C89.8054 97.5169 85.1696 101.188 80.1462 104.268C78.315 105.387 78.2327 109.697 80.1045 110.702C86.9988 114.422 93.7451 116.391 99.5786 116.391C104.7 116.391 109.117 114.874 112.306 111.684C117.297 106.694 118.363 98.5886 115.319 88.8583ZM108.368 107.746C103.903 112.21 95.2672 111.675 85.7747 107.28C90.1299 104.344 94.1884 100.99 97.8927 97.2664C101.615 93.5658 104.97 89.5136 107.912 85.1664C112.302 94.6548 112.832 103.286 108.368 107.746Z" fill="white"/>
<path fill-rule="evenodd" clip-rule="evenodd" d="M80.1042 48.2947C77.1232 46.6716 73.9946 45.3356 70.7606 44.3048C61.0354 41.2606 52.9299 42.3261 47.9394 47.3167C44.7504 50.5061 43.2324 54.9244 43.2324 60.0458C43.2324 65.8793 45.2019 72.6297 48.9169 79.5245C49.9273 81.3964 54.2373 81.3117 55.3555 79.4783C61.579 69.4105 70.0681 60.9356 80.1463 54.7291C81.9659 53.6234 82.0038 49.3148 80.1047 48.2951L80.1042 48.2947ZM52.3433 73.8493C47.9481 64.3563 47.4133 55.7155 51.8778 51.251C55.3278 47.801 61.4453 47.219 69.0988 49.6215C70.9317 50.2012 72.726 50.8963 74.471 51.7025C65.7638 57.6225 58.2557 65.137 52.3433 73.8493Z" fill="white"/>
<path fill-rule="evenodd" clip-rule="evenodd" d="M80.1463 104.268C75.1059 101.192 70.4541 97.5207 66.291 93.3331C62.1031 89.1703 58.4314 84.5186 55.355 79.4783C54.2456 77.6601 49.9361 77.6254 48.9164 79.5246C47.2969 82.5035 45.9626 85.6288 44.9312 88.8589C41.8819 98.5892 42.9525 106.694 47.9384 111.685C51.0673 114.809 55.4157 116.396 60.6204 116.396C64.067 116.344 67.4858 115.77 70.7602 114.692C73.9933 113.66 77.1217 112.324 80.1037 110.703C81.6073 109.898 81.9635 105.378 80.1453 104.269L80.1463 104.268ZM69.0983 109.38C61.4448 111.777 55.3278 111.196 51.8778 107.746C48.4279 104.296 47.8459 98.1784 50.2438 90.5248C50.8228 88.6933 51.5179 86.9005 52.3247 85.1572C55.2708 89.5075 58.6306 93.5628 62.3572 97.2665C66.0591 100.995 70.1163 104.354 74.471 107.294C72.7268 108.104 70.9324 108.801 69.0988 109.38L69.0983 109.38Z" fill="white"/>
<path fill-rule="evenodd" clip-rule="evenodd" d="M67.6985 79.1636L80.1242 59.6377L92.5499 79.1636L80.1242 86.2642L67.6985 79.1636Z" fill="white"/>
<path fill-rule="evenodd" clip-rule="evenodd" d="M67.6985 82.4988L80.1242 89.599L92.5499 82.4988L80.1242 99.3621L67.6985 82.4988Z" fill="white"/>
<path fill-rule="evenodd" clip-rule="evenodd" d="M85.7747 51.7163C83.845 52.6169 81.966 53.6224 80.1462 54.7285C78.315 53.6102 76.42 52.6 74.4709 51.7029C76.2903 50.473 78.1704 49.3355 80.1041 48.2946C82.0037 49.3142 83.8939 50.4548 85.7747 51.7163Z" fill="white"/>
<path fill-rule="evenodd" clip-rule="evenodd" d="M111.329 79.5194C110.283 81.4567 109.143 83.3413 107.912 85.1664C107.006 83.2239 105.994 81.3326 104.881 79.5009C105.991 77.6728 107.001 75.7862 107.907 73.8492C109.164 75.7251 110.305 77.6152 111.329 79.5194Z" fill="white"/>
<path fill-rule="evenodd" clip-rule="evenodd" d="M85.7747 107.28C85.3838 107.546 84.9929 107.802 84.6015 108.053C83.1385 108.996 81.6383 109.879 80.1046 110.702C78.2327 109.697 76.3548 108.561 74.4709 107.294C76.42 106.397 78.315 105.387 80.1462 104.269C81.964 105.378 83.8432 106.384 85.7747 107.28Z" fill="white"/>
<path fill-rule="evenodd" clip-rule="evenodd" d="M55.3556 79.4773C54.2374 81.311 53.2255 83.2074 52.3248 85.1572C51.0985 83.3356 49.9613 81.4557 48.917 79.524C49.9645 77.5767 51.108 75.6826 52.3433 73.8488C53.2402 75.7803 54.2462 77.6595 55.3556 79.4773Z" fill="white"/>
</g>
<defs>
<clipPath id="clip0_22_71">
<rect width="75.8621" height="75" fill="white" transform="translate(42 42)"/>
</clipPath>
</defs>
</svg>
