<svg width="160" height="160" viewBox="0 0 160 160" fill="none" xmlns="http://www.w3.org/2000/svg">
<g style="mix-blend-mode:plus-darker">
<circle cx="80" cy="80" r="80" fill="#3D403C"/>
<path d="M129.994 92.2257C129.553 82.9868 126.989 74.2273 122.698 67.5766C117.968 60.245 111.466 56 104.57 56C97.6734 56 91.1713 60.245 86.4412 67.5766C84.0835 71.2312 82.247 75.5225 80.9976 80.1803C80.3501 78.659 79.5997 77.2289 78.7523 75.9154C75.4491 70.7954 70.8821 67.7929 66.0037 67.7929C61.1251 67.7929 56.5582 70.7954 53.255 75.9154C51.7548 78.2408 50.5584 80.9322 49.699 83.8467C49.4824 83.4451 49.2533 83.0565 49.0118 82.6823C46.8679 79.3592 43.8733 77.3661 40.6342 77.3661C37.3952 77.3661 34.4006 79.3592 32.2567 82.6823C30.4329 85.5092 29.3079 89.1562 29.0105 93.0141C28.9567 93.7116 29.1122 94.3804 29.4342 94.8984C29.7511 95.4081 30.292 95.8514 30.9984 95.8514C31.7086 95.8514 32.2369 95.403 32.5618 94.9229C32.8933 94.4333 33.0973 93.8037 33.1632 93.1539C33.4256 90.5695 34.2072 88.1902 35.3847 86.3651C36.8549 84.0863 38.7621 82.9322 40.6342 82.9322C42.5064 82.9322 44.4135 84.0863 45.8838 86.3651C47.0613 88.1902 47.8428 90.5695 48.1052 93.1539C48.1712 93.8037 48.3752 94.4333 48.7067 94.9229C49.0316 95.403 49.5598 95.8514 50.27 95.8514C50.284 95.8514 50.2978 95.8512 50.3115 95.8509C50.3711 95.8568 50.4318 95.8598 50.4935 95.8598C51.2877 95.8598 51.8941 95.3597 52.276 94.7884C52.6639 94.2082 52.8999 93.4533 52.9591 92.663C53.3111 87.9675 54.673 83.5961 56.8177 80.2719C59.3319 76.3748 62.6551 74.3116 66.0037 74.3116C69.3522 74.3116 72.6754 76.3748 75.1897 80.2719C77.3342 83.5961 78.6963 87.9675 79.0483 92.663C79.1075 93.4533 79.3435 94.2082 79.7313 94.7884C80.1133 95.3597 80.7197 95.8598 81.5138 95.8598C81.5397 95.8598 81.5655 95.8592 81.591 95.8582C81.6175 95.8592 81.6442 95.8598 81.6712 95.8598C82.5254 95.8598 83.1879 95.3226 83.6096 94.6861C84.0369 94.0412 84.2937 93.1966 84.3437 92.306C84.7654 84.7885 86.8805 77.738 90.3147 72.4149C94.1733 66.434 99.3199 63.2001 104.57 63.2001C109.819 63.2001 114.966 66.434 118.825 72.4149C122.259 77.738 124.374 84.7885 124.796 92.306C124.846 93.1966 125.102 94.0412 125.529 94.6861C125.951 95.3226 126.614 95.8598 127.469 95.8598C128.32 95.8598 128.992 95.3252 129.403 94.6718C129.82 94.0104 130.038 93.1432 129.994 92.2257Z" fill="white" stroke="white" stroke-width="1.53307"/>
</g>
</svg>
