<svg width="160" height="160" viewBox="0 0 160 160" fill="none" xmlns="http://www.w3.org/2000/svg">
<circle cx="80" cy="80" r="80" fill="#3D403C"/>
<path d="M94.1539 122.997H64.9171C53.9357 122.997 45 114.062 45 103.08V45.1045C45 41.7378 47.7378 39 51.1045 39H107.967C111.333 39 114.071 41.7378 114.071 45.1045V103.083C114.071 114.064 105.135 123 94.1539 123V122.997ZM51.1045 44.3013C50.6625 44.3013 50.3013 44.6625 50.3013 45.1045V103.083C50.3013 111.142 56.8578 117.699 64.9171 117.699H94.1539C102.213 117.699 108.77 111.142 108.77 103.083V45.1045C108.77 44.6625 108.409 44.3013 107.967 44.3013H51.1045ZM98.8035 60.7811V54.371C98.8035 53.982 98.4878 53.6663 98.0989 53.6663H60.9696C60.5806 53.6663 60.2649 53.982 60.2649 54.371V60.7811C60.2649 61.17 60.5806 61.4857 60.9696 61.4857H75.4313V67.2492H62.0026C61.6136 67.2492 61.2979 67.5649 61.2979 67.9538V86.0146C61.2979 86.6915 61.7803 87.2749 62.4471 87.3987L75.4313 89.8107V93.5436C75.4313 94.233 75.9289 94.819 76.6083 94.9326L83.6396 96.097V91.3361L89.5648 92.4373V99.4965H69.5062V94.7053C69.5062 94.3164 69.1905 94.0007 68.8016 94.0007H62C61.6111 94.0007 61.2954 94.3164 61.2954 94.7053V104.379C61.2954 106 62.6112 107.316 64.2327 107.316H94.8358C96.4572 107.316 97.7731 106 97.7731 104.379V87.1815C97.7731 86.5046 97.2907 85.9212 96.6239 85.7974L83.6396 83.3855V75.0686H89.5648V79.2737C89.5648 79.6627 89.8805 79.9784 90.2694 79.9784H97.071C97.4599 79.9784 97.7756 79.6627 97.7756 79.2737V67.9538C97.7756 67.5649 97.4599 67.2492 97.071 67.2492H83.6396V61.4857H98.1014C98.4904 61.4857 98.8061 61.17 98.8061 60.7811H98.8035ZM75.4313 81.8575L69.5062 80.7563V75.066H75.4313V81.8575Z" fill="white"/>
</svg>
