<svg width="160" height="160" viewBox="0 0 160 160" fill="none" xmlns="http://www.w3.org/2000/svg">
<circle cx="80" cy="80" r="80" fill="#3D403C"/>
<g clip-path="url(#clip0_22_74)">
<path d="M30.1067 72.4217C29.7859 71.72 30.2184 71.0217 31.0267 71.0233L36.1734 71.0383C36.6042 71.0392 36.9267 71.31 37.0875 71.6342L43.1875 86.1575H43.295L49.5867 71.67C49.695 71.3467 50.0725 71.0783 50.5034 71.08L55.5959 71.0942C56.4042 71.0967 56.8875 71.7983 56.5075 72.4983L41.8967 105.625C41.7342 105.948 41.41 106.271 40.9792 106.269L35.9409 106.255C35.1325 106.252 34.6492 105.551 35.0292 104.797L39.2717 94.1883L30.1067 72.4233V72.4217Z" fill="white"/>
<path d="M69.9201 88.6351C72.9551 88.6435 75.5343 86.1643 75.5434 82.7501C75.5534 79.3351 72.9893 76.841 69.9543 76.8318C66.9193 76.8235 64.3409 79.3026 64.3309 82.7176C64.3209 86.1318 66.8851 88.6268 69.9201 88.6351ZM69.9734 70.2985C78.4884 70.3235 82.5576 77.0376 82.5409 82.7701C82.5243 88.5026 78.4159 95.1935 69.9009 95.1693C61.3868 95.1443 57.3176 88.4301 57.3343 82.6968C57.3501 76.9643 61.4584 70.2743 69.9734 70.2985ZM107.048 94.5626L102.378 94.5493C102.251 94.549 102.124 94.5235 102.006 94.4742C101.888 94.4249 101.781 94.3529 101.69 94.2622C101.6 94.1715 101.529 94.0639 101.48 93.9456C101.431 93.8273 101.406 93.7006 101.407 93.5726L101.411 92.0601H101.327C99.8851 95.0485 97.0184 95.2935 95.2476 95.2876C93.8143 95.2835 90.4426 94.936 88.3851 92.3168C86.5368 89.9935 86.2884 88.306 86.2984 85.1026L86.3359 72.0818C86.3368 71.8236 86.4402 71.5763 86.6233 71.3942C86.8065 71.2122 87.0544 71.1103 87.3126 71.111L92.3626 71.1251C92.4905 71.1256 92.6171 71.1512 92.7352 71.2006C92.8532 71.2499 92.9603 71.322 93.0505 71.4128C93.1406 71.5036 93.212 71.6112 93.2606 71.7296C93.3091 71.8479 93.3339 71.9747 93.3334 72.1026L93.2993 84.0693C93.2943 85.671 93.2851 88.7476 97.0368 88.7585C99.0601 88.7643 101.044 87.7168 101.055 84.0076L101.089 72.1243C101.09 71.8661 101.194 71.6188 101.377 71.4367C101.56 71.2547 101.808 71.1528 102.066 71.1535L107.116 71.1676C107.244 71.1681 107.37 71.1937 107.488 71.2431C107.607 71.2924 107.714 71.3645 107.804 71.4553C107.894 71.5461 107.965 71.6537 108.014 71.7721C108.062 71.8904 108.087 72.0172 108.087 72.1451L108.025 93.591C108.024 93.8494 107.921 94.0969 107.737 94.2791C107.554 94.4613 107.306 94.5633 107.048 94.5626ZM128.578 68.2185L125.317 64.9093H115.255L111.943 68.201C111.778 68.3652 111.647 68.5603 111.557 68.7752C111.467 68.9901 111.421 69.2206 111.42 69.4536C111.419 69.6865 111.465 69.9173 111.553 70.1328C111.642 70.3482 111.772 70.5441 111.936 70.7093L114.452 73.2393C114.616 73.4045 114.811 73.5358 115.026 73.6256C115.241 73.7154 115.471 73.762 115.704 73.7627C115.937 73.7634 116.168 73.7182 116.384 73.6297C116.599 73.5411 116.795 73.411 116.96 73.2468L120.271 69.9543L123.533 73.2343C123.697 73.3995 123.892 73.5308 124.107 73.6206C124.322 73.7104 124.552 73.757 124.785 73.7577C125.018 73.7584 125.249 73.7132 125.464 73.6247C125.68 73.5361 125.876 73.406 126.041 73.2418L128.57 70.726C128.735 70.5618 128.867 70.3667 128.956 70.1517C129.046 69.9368 129.093 69.7063 129.094 69.4734C129.094 69.2404 129.049 69.0096 128.96 68.7942C128.872 68.5787 128.742 68.3836 128.578 68.2185Z" fill="white"/>
<path d="M115.238 64.8801L112.502 62.1276C111.838 61.4601 111.467 60.5564 111.469 59.6152C111.472 58.674 111.849 57.7724 112.516 57.1088C113.184 56.4452 114.087 56.0739 115.029 56.0767C115.97 56.0794 116.871 56.4559 117.535 57.1234L119.963 59.5667C120.004 59.6075 120.052 59.6399 120.105 59.662C120.158 59.6842 120.215 59.6957 120.272 59.6958C120.33 59.696 120.386 59.6848 120.44 59.663C120.493 59.6411 120.541 59.6089 120.582 59.5684L123.056 57.1084C123.723 56.4449 124.627 56.0737 125.568 56.0766C126.509 56.0794 127.411 56.4559 128.074 57.1234C128.738 57.7908 129.109 58.6945 129.106 59.6357C129.103 60.5768 128.727 61.4782 128.059 62.1417L125.276 64.9084L120.872 69.2876C120.789 69.3697 120.691 69.4348 120.583 69.4791C120.476 69.5234 120.36 69.546 120.244 69.5457C120.127 69.5454 120.012 69.5221 119.905 69.4773C119.797 69.4324 119.7 69.3668 119.617 69.2842L115.238 64.8801Z" fill="white"/>
</g>
<defs>
<clipPath id="clip0_22_74">
<rect width="100" height="50.8333" fill="white" transform="translate(30 56)"/>
</clipPath>
</defs>
</svg>
